# xmcd
#
# Track frame offsets: 
#        150
#        15857
#        28827
#        40484
#        58782
#        74857
#        90495
#        103005
#        118004
#        131115
#        148151
#        163550
#        178596
#        191472
#
# Disc length: 2758 seconds
#
# Revision: 0
# Processed by: cddbd v1.5.2PL0 Copyright (c) Steve Scherf et al.
# Submitted via: ExactAudioCopy v0.99pb5
#
DISCID=ca0ac40e
DTITLE=Rudis Blues Connection - Back on the road
DYEAR=1998
DGENRE=Blues
TTITLE0=Rung get a bucket
TTITLE1=Tell me baby
TTITLE2=Buddy's rag
TTITLE3=Comming to Salinas
TTITLE4=Back in your city
TTITLE5=Dahlumer Goat Fuck Blues (Instr.)
TTITLE6=Go back to School
TTITLE7=Riding in the sunshine
TTITLE8=Lisa's Blues (Instr.)
TTITLE9=Hey Bluesman
TTITLE10=Back on the road
TTITLE11=Old Folks Talk
TTITLE12=Tourenkartenblues (Instr.)
TTITLE13=Long ways from home
EXTD=
EXTT0=
EXTT1=
EXTT2=
EXTT3=
EXTT4=
EXTT5=
EXTT6=
EXTT7=
EXTT8=
EXTT9=
EXTT10=
EXTT11=
EXTT12=
EXTT13=
PLAYORDER=
